<svg id="Layer_4" height="512" viewBox="0 0 24 24" width="512" xmlns="http://www.w3.org/2000/svg" xmlns:xlink="http://www.w3.org/1999/xlink" data-name="Layer 4"><linearGradient id="linear-gradient" gradientUnits="userSpaceOnUse" x1="5.38" x2="20.62" y1="4.38" y2="19.62"><stop offset="0" stop-color="#ff8a6b"/><stop offset="1" stop-color="#fe626a"/></linearGradient><linearGradient id="linear-gradient-2" x1="6.793" x2="13.207" xlink:href="#linear-gradient" y1="8.793" y2="15.207"/><g id="Gradient"><g id="Log_Out" data-name="Log Out"><path d="m17 22h-8a3 3 0 0 1 -3-3 1 1 0 0 1 2 0 1 1 0 0 0 1 1h8a1 1 0 0 0 1-1v-14a1 1 0 0 0 -1-1h-8a1 1 0 0 0 -1 1 1 1 0 0 1 -2 0 3 3 0 0 1 3-3h8a3 3 0 0 1 3 3v14a3 3 0 0 1 -3 3z" fill="url(#linear-gradient)"/><path d="m15 11h-7.586l1.293-1.293a1 1 0 0 0 -1.414-1.414l-3 3a1 1 0 0 0 0 1.414l3 3a1 1 0 0 0 1.414-1.414l-1.293-1.293h7.586a1 1 0 0 0 0-2z" fill="url(#linear-gradient-2)"/></g></g></svg>