<svg id="Line_Color" height="512" viewBox="0 0 64 64" width="512" xmlns="http://www.w3.org/2000/svg"><g><path d="m24 12h-8c-.55229 0-1-.44771-1-1v-2c0-.55229.44771-1 1-1h8c.55228 0 1 .44771 1 1v2c0 .55229-.44772 1-1 1z" fill="#eeeae3"/><path d="m24 8h-1v1c0 .55225-.44769 1-1 1h-7v1c0 .55225.44769 1 1 1h8c.55231 0 1-.44775 1-1v-2c0-.55231-.44769-1-1-1z" fill="#d6cec1"/><path d="m24 8h-8v-3c0-.55228.44772-1 1-1h6c.55228 0 1 .44772 1 1z" fill="#bd6929"/><path d="m23 4h-1v1c0 .55228-.44772 1-1 1h-5v2h8v-3c0-.55228-.44772-1-1-1z" fill="#9f5115"/><path d="m24 19.39023v-7.39023h-8v7.39023c0 2.92586-1.27852 5.70564-3.5 7.60977-2.22148 1.90413-3.5 4.6839-3.5 7.60976v21.39024c0 2.20914 1.79086 4 4 4h14c2.20914 0 4-1.79086 4-4v-21.39023c0-2.92586-1.27852-5.70564-3.5-7.60976v-.00001c-2.22148-1.90413-3.5-4.68391-3.5-7.60977z" fill="#4c473d"/><path d="m31 36.20001v15.79999h-22v-15.79999c2.90997-.65002 6.64001-1.20001 11-1.20001 1.98999 0 6.15002.10999 11 1.20001z" fill="#eeeae3"/><path d="m31 36.20001v11.79999h-3v-12.37c.96002.14997 1.96997.33997 3 .57001z" fill="#d6cec1"/><path d="m31 34.60999v1.59003c-1.03003-.23004-2.03998-.42004-3-.57001v-1.02002c0-2.03998-.89001-3.98999-2.44-5.32001-2.90003-2.46997-4.56-6.08997-4.56-9.89997v-7.39001h3v7.39001c0 2.92999 1.28003 5.70996 3.5 7.60999 2.21997 1.89996 3.5 4.67999 3.5 7.60999z" fill="#35322b"/><path d="m31 52v4c0 2.20996-1.78998 4-4 4h-3c2.21002 0 4-1.79004 4-4v-4z" fill="#35322b"/><circle cx="20" cy="35" fill="#f92814" r="3"/><path d="m21.23029 32.26971c.16992.37623.26971.79065.26971 1.23029 0 1.65686-1.34314 3-3 3-.43964 0-.85406-.09979-1.23029-.26971.4704 1.04168 1.51307 1.76971 2.73029 1.76971 1.65686 0 3-1.34314 3-3 0-1.21722-.72803-2.25989-1.76971-2.73029z" fill="#db0404"/><path d="m47.75 56.59998 4.25 3.40002h-14l4.25-3.40002c.46997-.38.75-.95001.75-1.56v-9.58997c0-.42004-.28002-.78002-.67999-.92004-4.57148-1.60042-7.32001-6.88579-7.32001-11.52997 0-.82001.08002-1.64001.22998-2.42999.17999-.93 1.02002-1.57001 1.95001-1.57001h15.64001c.92999 0 1.77002.64001 1.95001 1.57001.14997.78998.22999 1.60998.22999 2.42999 0 5.12-3.09998 10.02997-7.32001 11.52997-.39996.14001-.67999.5-.67999.92004v9.58997c0 .60998.28003 1.17999.75 1.56z" fill="#eeeae3"/><g><path d="m47 55.03998v-9.58997c0-.42004.28003-.78003.67999-.92004 4.22003-1.5 7.32001-6.40997 7.32001-11.52997 0-.82001-.08002-1.64001-.22998-2.42999-.16394-.84705-.87659-1.44763-1.70496-1.54907.06458.138.11926.28198.14941.43793.14996.78998.22998 1.60999.22998 2.42999 0 5.12-3.09998 10.02997-7.32001 11.52997-.39996.14001-.67999.5-.67999.92004v11.58997c0 .60999.28003 1.17999.75 1.56l3.13892 2.51116h2.66663l-4.25-3.40002c-.46997-.38001-.75-.95002-.75-1.56z" fill="#d6cec1"/></g><path d="m50.73999 35.04999c-.76001 3.27002-3.19 5.95001-5.73999 5.95001-2.59998 0-5.09003-2.79999-5.78998-6.17004-.11005-.51996.19-1.02997.69-1.16998 2.13-.62 4.12-1.14996 6.15997.10004 1.20001.72998 2.70001.97998 4.09003.67999.35999-.08002.68.24999.58997.60998z" fill="#f92814"/><path d="m50.15002 34.44c-.41254.08905-.8338.11469-1.255.10864-1.01038 2.69971-3.14746 4.74762-5.37653 4.74762-1.04657 0-2.073-.45917-2.97437-1.22107 1.13532 1.74512 2.77088 2.92481 4.45588 2.92481 2.54999 0 4.97998-2.67999 5.73999-5.95001.09003-.35999-.22998-.69-.58997-.60999z" fill="#db0404"/><path d="m9 48h22v4h-22z" fill="#f92814"/><path d="m28 48h3v4h-3z" fill="#db0404"/><g><path d="m28.15039 26.24023c-.98926-.84619-1.77051-1.88184-2.32227-3.0791-.5498-1.1914-.82812-2.45996-.82812-3.77099 0 0 0-1.3858 0-1.39013 0-1.28934-2-1.29204-2-.00001v1.39014c0 1.60205.34082 3.15283 1.01172 4.60889.67383 1.46045 1.62891 2.72607 2.83789 3.76074 2.00195 1.71337 3.15039 4.21044 3.15039 6.85009v.36743c-1.99683-.39551-4.03668-.66998-6.09314-.82013-.38849-1.80151-1.99042-3.15716-3.90686-3.15716-1.91693 0-3.51935 1.35632-3.90729 3.15851-2.09637.15631-4.13629.43213-6.09271.82452v-.37317c0-1.31104.27832-2.57959.82812-3.771.55176-1.19727 1.33301-2.23291 2.32227-3.0791 2.44629-2.09423 3.84961-5.14453 3.84961-8.36962v-6.39014h6v.99999c0 1.28697 2 1.29329 2 .00001v-1.27826c.59479-.34692 1-.98474 1-1.72174v-2c0-.737-.40521-1.37482-1-1.72174v-2.27826c0-1.10303-.89746-2-2-2h-6c-1.10254 0-2 .89697-2 2v2.27826c-.59479.34692-1 .98474-1 1.72174v2c0 .737.40521 1.37482 1 1.72174v6.6684c0 2.63965-1.14844 5.13672-3.15039 6.8501-1.20898 1.03467-2.16406 2.30029-2.83789 3.76074-.6709 1.45605-1.01172 3.00683-1.01172 4.60888v21.39014c0 2.75684 2.24316 5 5 5h14c2.75684 0 5-2.24316 5-5v-21.39014c0-3.22509-1.40332-6.27539-3.84961-8.36963zm-12.15039-17.24023h8l.00098 2h-8.00098zm1-4h6v2h-6zm3 28c1.10254 0 2 .89697 2 2s-.89746 2-2 2-2-.89697-2-2 .89746-2 2-2zm-3.8092 3.15692c.49975 1.63928 2.00817 2.84308 3.8092 2.84308 1.80164 0 3.31049-1.20459 3.80969-2.84479 2.09235.15466 4.1665.44336 6.19031.8623v9.98249s-14.94946 0-14.99987 0c-1.28699 0-1.29142 2-.00013 2h15v2h-20v-2h.99999c1.27164 0 1.29699-2 .00001-2h-1v-9.97546c1.97858-.4159 4.05261-.70642 6.1908-.86762zm10.8092 22.84308h-14c-1.6543 0-3-1.3457-3-3v-3h20v3c0 1.6543-1.3457 3-3 3z"/><path d="m16 44h7.99994c1.26181 0 1.2963-2 .00006-2 0 0-7.97078 0-7.99992 0-1.28681 0-1.29149 2-.00008 2z"/><path d="m48.37891 55.82275c-.24121-.19482-.37891-.47998-.37891-.78271 0 0 0-.03864 0-.04 0-1.2924-2-1.24771-2 .04 0 .90918.4082 1.76123 1.125 2.34082l2.02441 1.61914h-8.29883l2.02832-1.62256c.7129-.57617 1.1211-1.42822 1.1211-2.3374v-9.58984c0-.83203-.54199-1.58105-1.34473-1.86279-3.79394-1.34815-6.65527-5.89991-6.65527-10.58741 0-.74658.07129-1.50146.21191-2.24023.08594-.44043.49219-.75977.96778-.75977h15.64062c.47559 0 .88184.31934.9668.75684.1416.7417.21289 1.49658.21289 2.24316 0 4.6875-2.86133 9.23926-6.65137 10.58594-.80664.2832-1.34863 1.03222-1.34863 1.86426v5.54967c0 1.27893 2 1.30109 2 .00013l.01465-5.52783c4.62695-1.64453 7.98535-6.88965 7.98535-12.47217 0-.87158-.08301-1.75244-.24902-2.62012-.2666-1.3789-1.49903-2.37988-2.93067-2.37988h-15.64062c-1.43164 0-2.66406 1.00098-2.93164 2.38281-.16504.86475-.24805 1.74561-.24805 2.61719 0 5.58252 3.3584 10.82764 8 12.4502v9.58984c0 .30273-.1377.58789-.375.7793 0 0-4.24201 3.39351-4.24999 3.39989-.704.56319-.28287 1.78077.62499 1.78077h13.99991c.90987 0 1.34022-1.20803.62509-1.78076z"/><path d="m51.7168 35.28125c.24917-1.06327-.70919-2.05015-1.77931-1.82129-1.12987.24463-2.38671.03613-3.35643-.55566-2.46973-1.50732-4.85254-.81787-6.95801-.2085-.99609.2876-1.60938 1.31494-1.39551 2.33838.8291 3.97119 3.74121 6.96582 6.77246 6.96582 2.93057 0 5.81817-2.88848 6.7168-6.71875zm-6.7168 4.71875c-2.03613 0-4.19531-2.41113-4.82119-5.38333 1.7561-.50778 3.68686-1.02721 5.36025-.00534 1.19336.72803 2.62402 1.05078 4.03223.92383-.83106 2.5542-2.74414 4.46484-4.57129 4.46484z"/></g></g></svg>