<svg id="Capa_1" enable-background="new 0 0 490.571 490.571" height="512" viewBox="0 0 490.571 490.571" width="512" xmlns="http://www.w3.org/2000/svg"><g><path d="m490.571 104.008v169.876c0 6.364-5.159 11.524-11.524 11.524h-131.936v-201.65l38.57-39.53h35.43c38.41.25 69.46 26.92 69.46 59.78z" fill="#e1d3ce"/><path d="m416.555 44.233c-27.27 0-49.45 18.51-50.27 41.62-.02.44-.03.89-.03 1.33v391.64c-.39 6.2-5.54 11.1-11.83 11.1h-251.28c-4.729 0-8.81-2.761-10.714-6.762-.12-.253-.176-.533-.176-.813v-395.165c0-19.58 15.32-36.08 36.29-41.26 4.45-1.1 9.15-1.69 14.01-1.69z" fill="#f9f3f1"/><g fill="#a59da7"><path d="m317.007 180.694h-134.222c-4.142 0-7.5-3.358-7.5-7.5s3.358-7.5 7.5-7.5h134.221c4.142 0 7.5 3.358 7.5 7.5s-3.357 7.5-7.499 7.5z"/><path d="m317.006 245.443h-154.43c-4.142 0-7.5-3.358-7.5-7.5s3.358-7.5 7.5-7.5h154.43c4.142 0 7.5 3.358 7.5 7.5s-3.358 7.5-7.5 7.5z"/><path d="m317.007 374.924h-129.222c-4.142 0-7.5-3.358-7.5-7.5s3.358-7.5 7.5-7.5h129.221c4.142 0 7.5 3.358 7.5 7.5s-3.357 7.5-7.499 7.5z"/></g><path d="m172.555 44.233c-4.86 0-9.56.59-14.01 1.69-20.97 5.18-36.29 21.68-36.29 41.26v395.165c0 .28.056.56.176.813 1.904 4.002 5.985 6.762 10.714 6.762h-30c-4.729 0-8.81-2.761-10.714-6.762-.12-.253-.176-.533-.176-.813v-395.165c0-19.58 15.32-36.08 36.29-41.26 4.45-1.1 9.15-1.69 14.01-1.69z" fill="#e1d3ce"/><path d="m317.007 310.185h-124.15c-4.142 0-7.5-3.358-7.5-7.5s3.358-7.5 7.5-7.5h124.15c4.142 0 7.5 3.358 7.5 7.5s-3.358 7.5-7.5 7.5z" fill="#a59da7"/><path d="m154.938 250.135-12.241 3.482c-5.711 1.624-11.657-1.688-13.281-7.399l-10.48-36.844c-1.624-5.711 1.688-11.657 7.399-13.281l12.241-3.482c5.711-1.624 11.657 1.688 13.281 7.399l10.48 36.844c1.624 5.711-1.689 11.657-7.399 13.281z" fill="#685e68"/><circle cx="108.111" cy="108.758" fill="#7a6d79" r="108.083"/><ellipse cx="108.561" cy="108.758" fill="#8ac9fe" rx="77.55" ry="77.099"/><path d="m199.358 371.221-30.706 8.734c-6.64 1.889-13.554-1.963-15.443-8.603l-30.812-108.329c-1.889-6.64 1.963-13.554 8.603-15.443l30.706-8.734c6.64-1.889 13.554 1.963 15.443 8.603l30.812 108.329c1.889 6.64-1.963 13.554-8.603 15.443z" fill="#bc7c63"/><path d="m122.511 184.608c-38.86 7.11-77.51-16.21-88.54-54.76-11.72-40.95 12.18-83.6 53.37-95.25 11.87-3.36 23.88-3.77 35.25-1.69-2.43.44-4.85 1-7.27 1.69-41.19 11.65-65.09 54.3-53.37 95.25 8.34 29.16 32.48 49.6 60.56 54.76z" fill="#60b7ff"/><path d="m181.815 376.213-13.16 3.74c-6.64 1.89-13.56-1.96-15.45-8.6l-30.81-108.33c-1.89-6.64 1.97-13.55 8.61-15.44l12.42-3.54c-4.11 3.01-6.14 8.36-4.66 13.54l31.16 109.55c1.55 5.46 6.5 9.03 11.89 9.08z" fill="#aa6a51"/></g></svg>