<svg id="Capa_1" enable-background="new 0 0 512 512" height="512" viewBox="0 0 512 512" width="512" xmlns="http://www.w3.org/2000/svg"><g><g><g><path d="m299.39 85.261v187.375c0 2.761 2.238 5.001 5 5.001h195.11c2.761 0 5-2.238 5-4.999v-187.376c0-2.761-2.239-5-5-5h-195.11c-2.762 0-5 2.238-5 4.999z" fill="#fead8a"/><path d="m499.5 80.262h-27c2.761 0 5 2.239 5 5v187.374c0 2.761-2.239 5.001-5 5.001h27c2.761 0 5-2.238 5-4.999v-187.376c0-2.762-2.239-5-5-5z" fill="#fd9468"/><path d="m425.467 131.52-22.467-13.959c-.646-.402-1.465-.402-2.111 0l-22.467 13.959c-1.332.828-3.056-.13-3.056-1.699v-49.558h53.156v49.558c.001 1.568-1.723 2.527-3.055 1.699z" fill="#fff9df"/><g><path d="m7.5 191.218v200.399c0 5.54 4.491 10.03 10.031 10.03h233.697v-210.43c0-2.77-2.247-5.017-5.017-5.017h-233.693c-2.77 0-5.018 2.248-5.018 5.018z" fill="#fead8a"/><path d="m246.211 186.2h-25c2.77 0 5.015 2.245 5.015 5.015v210.432h25.001v-210.43c.001-2.77-2.246-5.017-5.016-5.017z" fill="#fd9468"/><path d="m7.5 355.763v35.854c0 5.54 4.491 10.03 10.031 10.03h233.697v-45.885h-243.728z" fill="#ffe177"/><path d="m226.227 355.763h25.001v45.885h-25.001z" fill="#fec165"/><path d="m251.228 215.339h103.282c6.898 0 13.134 4.098 15.873 10.429l27.356 63.223 26.254 22.217c6.261 5.298 9.875 13.082 9.875 21.284v64.138c0 2.77-2.247 5.017-5.017 5.017h-177.623z" fill="#62dbfb"/><path d="m423.993 311.208-26.254-22.217-27.356-63.223c-2.739-6.33-8.976-10.429-15.873-10.429h-25c6.897 0 13.136 4.097 15.875 10.427l27.355 63.225 26.255 22.216c6.261 5.298 9.872 13.084 9.872 21.286v64.138c0 2.77-2.245 5.017-5.015 5.017h24.999c2.77 0 5.017-2.247 5.017-5.017v-64.138c0-8.203-3.614-15.987-9.875-21.285z" fill="#01d0fb"/><path d="m343.705 288.991h54.034l-18.451-42.645h-35.583c-2.77 0-5.015 2.246-5.015 5.015v32.615c0 2.77 2.245 5.015 5.015 5.015z" fill="#3692bc"/><path d="m382.361 253.448-3.073-7.102h-25l18.451 42.645h25z" fill="#0681af"/><path d="m310.604 251.361v32.615c0 2.77-2.245 5.015-5.015 5.015h-20.324c-2.77 0-5.015-2.245-5.015-5.015v-32.615c0-2.77 2.245-5.015 5.015-5.015h20.324c2.769 0 5.015 2.246 5.015 5.015z" fill="#3692bc"/><path d="m345.752 431.739c-25.564 0-46.362-20.798-46.362-46.361s20.798-46.361 46.362-46.361 46.361 20.798 46.361 46.361-20.798 46.361-46.361 46.361z" fill="#3692bc"/><path d="m345.751 369.108c-8.985 0-16.269 7.284-16.269 16.269s7.284 16.269 16.269 16.269 16.269-7.284 16.269-16.269-7.284-16.269-16.269-16.269z" fill="#fff9df"/><path d="m89.783 431.739c-25.564 0-46.362-20.798-46.362-46.361s20.798-46.361 46.362-46.361 46.361 20.798 46.361 46.361-20.798 46.361-46.361 46.361z" fill="#3692bc"/><path d="m89.782 369.108c-8.985 0-16.269 7.284-16.269 16.269s7.284 16.269 16.269 16.269 16.269-7.284 16.269-16.269-7.284-16.269-16.269-16.269z" fill="#fff9df"/></g><path d="m132.422 106.85h-29.175c-1.349 0-2.443-1.094-2.443-2.443v-15.363c0-2.774-3.191-4.334-5.38-2.629l-41.496 32.317c-2.65 2.064-2.65 6.07 0 8.133l41.496 32.317c2.189 1.704 5.38.145 5.38-2.629v-15.362c0-1.349 1.094-2.443 2.443-2.443h29.175c21.093 0 38.191 17.099 38.191 38.191s-17.099 38.191-38.191 38.191h-33.519c-2.761 0-5 2.239-5 5v21.898c0 2.761 2.239 5 5 5h33.518c38.71 0 70.09-31.38 70.09-70.09s-31.38-70.088-70.089-70.088z" fill="#00f2a6"/></g></g><g><path d="m504.5 116.911c4.143 0 7.5-3.357 7.5-7.5v-24.15c0-6.893-5.607-12.5-12.5-12.5h-195.11c-6.893 0-12.5 5.607-12.5 12.5v122.58h-33.16v-16.62c0-6.903-5.616-12.52-12.521-12.52h-36.243c.013-.588.045-1.171.045-1.762 0-42.783-34.807-77.59-77.59-77.59h-24.118v-10.304c0-4.171-2.328-7.9-6.075-9.732-3.746-1.832-8.119-1.378-11.414 1.186l-41.496 32.317c-3.101 2.415-4.879 6.054-4.879 9.983 0 3.931 1.778 7.569 4.879 9.984l41.495 32.315c3.291 2.565 7.662 3.021 11.412 1.188 3.748-1.832 6.077-5.562 6.077-9.733v-10.306h24.119c16.923 0 30.691 13.769 30.691 30.691 0 .592-.021 1.178-.054 1.762h-150.538c-6.903 0-12.52 5.616-12.52 12.52v200.4c0 9.666 7.864 17.53 17.53 17.53h23.937c8.798 17.807 27.146 30.088 48.315 30.088s39.517-12.281 48.315-30.088h37.083c4.143 0 7.5-3.357 7.5-7.5s-3.357-7.5-7.5-7.5h-32.262c1.71-10.389.398-21.07-4.044-30.891h104.856v30.891h-33.82c-4.143 0-7.5 3.357-7.5 7.5s3.357 7.5 7.5 7.5h87.526c8.798 17.807 27.146 30.088 48.316 30.088 21.168 0 39.516-12.281 48.314-30.088h34.784c6.904 0 12.521-5.616 12.521-12.521v-64.14c0-10.429-4.57-20.272-12.534-27.005l-24.039-20.346h94.702c6.893 0 12.5-5.607 12.5-12.5v-128.227c0-4.143-3.357-7.5-7.5-7.5s-7.5 3.357-7.5 7.5v125.729h-99.247l-20.486-47.34c-3.919-9.088-12.852-14.96-22.757-14.96h-47.62v-120.079h60.978v42.061c0 3.445 1.87 6.627 4.881 8.302 3.012 1.673 6.699 1.586 9.633-.232l19.563-12.155 19.568 12.158c2.9 1.799 6.59 1.92 9.629.229 3.011-1.675 4.881-4.856 4.881-8.302v-42.061h60.977v21.65c0 4.143 3.357 7.5 7.5 7.5zm-372.078 14.337h-29.176c-5.482 0-9.943 4.461-9.943 9.943v6.834l-32.392-25.227 32.393-25.228v6.836c0 5.482 4.461 9.942 9.943 9.942h29.175c34.512 0 62.59 28.078 62.59 62.59s-28.078 62.59-62.59 62.59h-31.019v-16.898h31.019c21.351 0 39.323-14.722 44.311-34.547.042-.163.079-.327.114-.492.734-3.44 1.267-6.984 1.267-10.652-.001-25.194-20.498-45.691-45.692-45.691zm-114.892 262.903c-1.396 0-2.53-1.135-2.53-2.53v-28.36h25.691c-4.269 9.436-5.823 20.084-4.044 30.891h-19.117zm72.252 30.088c-21.428 0-38.861-17.434-38.861-38.861s17.434-38.861 38.861-38.861c11.972 0 22.694 5.446 29.829 13.986.031.038.064.073.095.11 5.579 6.729 8.938 15.362 8.938 24.765 0 21.428-17.434 38.861-38.862 38.861zm38.975-75.978c-9.817-10.303-23.653-16.744-38.974-16.744s-29.157 6.441-38.974 16.744h-35.809v-154.56h143.112c-5.486 8.379-14.949 13.93-25.69 13.93h-33.519c-6.893 0-12.5 5.607-12.5 12.5v21.898c0 6.893 5.607 12.5 12.5 12.5h33.519c37.027 0 68.061-26.079 75.746-60.828h35.563v154.56zm216.995 75.978c-21.429 0-38.862-17.434-38.862-38.861s17.434-38.861 38.862-38.861 38.86 17.434 38.86 38.861-17.432 38.861-38.86 38.861zm40.57-142.747h-40.132v-27.646h28.169zm-22.825-52.743 4.37 10.098h-24.162c-6.901 0-12.516 5.614-12.516 12.516v32.614c0 6.901 5.614 12.516 12.516 12.516h51.286l24.157 20.446c4.59 3.88 7.222 9.549 7.222 15.553v61.66h-27.484c.47-2.857.726-5.785.726-8.773 0-29.699-24.162-53.861-53.86-53.861-29.7 0-53.862 24.162-53.862 53.861 0 2.988.256 5.917.726 8.773h-33.886v-171.311h95.779c3.912 0 7.438 2.315 8.988 5.908zm57.525-108.819-14.06-8.735c-3.097-1.928-6.942-1.927-10.031-.003l-14.064 8.738v-32.169h38.155z"/><path d="m272.748 251.362v32.614c0 6.901 5.614 12.516 12.516 12.516h20.324c6.901 0 12.516-5.614 12.516-12.516v-32.614c0-6.901-5.614-12.516-12.516-12.516h-20.324c-6.902.001-12.516 5.615-12.516 12.516zm15 2.485h15.355v27.646h-15.355z"/><path d="m345.751 361.608c-13.106 0-23.769 10.663-23.769 23.77s10.662 23.769 23.769 23.769 23.77-10.662 23.77-23.769-10.664-23.77-23.77-23.77zm0 32.538c-4.835 0-8.769-3.934-8.769-8.769 0-4.836 3.934-8.77 8.769-8.77 4.836 0 8.77 3.934 8.77 8.77s-3.934 8.769-8.77 8.769z"/><path d="m89.782 361.608c-13.106 0-23.769 10.663-23.769 23.77s10.662 23.769 23.769 23.769 23.769-10.662 23.769-23.769-10.662-23.77-23.769-23.77zm0 32.538c-4.835 0-8.769-3.934-8.769-8.769 0-4.836 3.934-8.77 8.769-8.77s8.769 3.934 8.769 8.77-3.934 8.769-8.769 8.769z"/></g></g></svg>