<?xml version="1.0" encoding="iso-8859-1"?>
<!-- Generator: Adobe Illustrator 19.0.0, SVG Export Plug-In . SVG Version: 6.00 Build 0)  -->
<svg version="1.1" id="Capa_1" xmlns="http://www.w3.org/2000/svg" xmlns:xlink="http://www.w3.org/1999/xlink" x="0px" y="0px"
	 viewBox="0 0 512 512" style="enable-background:new 0 0 512 512;" xml:space="preserve">
<circle style="fill:#FFE670;" cx="256" cy="256" r="256"/>
<path style="fill:#FEC000;" d="M509.277,293.363l-62.288-62.343c-14.494-15.359-35.034-24.95-57.819-24.95
	c-11.445,0-22.314,2.437-32.146,6.791L233.948,89.843c-14.55-16.153-35.625-26.313-59.076-26.313
	c-43.904,0-79.495,35.591-79.495,79.495c0,22.235,9.133,42.332,23.85,56.755l35.96,35.937l7.381,12.173H86.56
	c-20.163,0-36.567,16.404-36.567,36.567c0,9.908,3.966,18.903,10.389,25.494l202.266,201.964
	C388.345,508.71,491.503,414.899,509.277,293.363z"/>
<path style="fill:#FFFFFF;" d="M389.171,410.722H255.015c-22.335,0-40.505-18.171-40.505-40.506v-31.867
	c0-9.553-7.772-17.326-17.326-17.326H86.56c-20.163,0-36.567-16.404-36.567-36.567s16.403-36.567,36.567-36.567h88.31v20.291H86.56
	c-8.974,0-16.275,7.301-16.275,16.275s7.301,16.275,16.275,16.275h110.624c20.742,0,37.617,16.875,37.617,37.617v31.867
	c0,11.146,9.068,20.214,20.214,20.214h134.157v20.294H389.171z"/>
<rect x="255.95" y="390.43" style="fill:#54FBFF;" width="133.22" height="20.291"/>
<polygon style="fill:#C2001B;" points="214.255,203.229 135.487,203.229 174.87,268.181 "/>
<polygon style="fill:#990011;" points="214.254,203.229 206.532,215.964 174.87,268.182 174.871,203.229 "/>
<circle style="fill:#E02424;" cx="174.87" cy="143.03" r="79.49"/>
<path style="fill:#C2001B;" d="M254.367,143.025c0,32.653-19.684,60.705-47.836,72.94c-9.703,4.219-20.409,6.557-31.66,6.557V63.528
	C218.776,63.528,254.367,99.12,254.367,143.025z"/>
<circle style="fill:#FFFFFF;" cx="174.87" cy="143.03" r="32.592"/>
<path style="fill:#54FBFF;" d="M207.463,143.025c0,18.001-14.591,32.592-32.592,32.592v-65.184
	C192.872,110.433,207.463,125.024,207.463,143.025z"/>
<polygon style="fill:#004EB1;" points="428.555,345.768 349.786,345.768 389.17,410.72 "/>
<polygon style="fill:#002D6B;" points="428.554,345.768 420.831,358.504 389.171,410.722 389.171,345.768 "/>
<circle style="fill:#0088FF;" cx="389.17" cy="285.56" r="79.49"/>
<path style="fill:#004EB1;" d="M468.667,285.564c0,32.653-19.684,60.705-47.836,72.94c-9.703,4.219-20.409,6.556-31.66,6.556
	V206.068C433.075,206.068,468.667,241.659,468.667,285.564z"/>
<circle style="fill:#FFFFFF;" cx="389.17" cy="285.56" r="32.592"/>
<path style="fill:#54FBFF;" d="M421.763,285.564c0,18.001-14.591,32.592-32.592,32.592v-65.184
	C407.171,252.972,421.763,267.563,421.763,285.564z"/>
<g>
</g>
<g>
</g>
<g>
</g>
<g>
</g>
<g>
</g>
<g>
</g>
<g>
</g>
<g>
</g>
<g>
</g>
<g>
</g>
<g>
</g>
<g>
</g>
<g>
</g>
<g>
</g>
<g>
</g>
</svg>
