<svg height="512pt" viewBox="0 0 512 512" width="512pt" xmlns="http://www.w3.org/2000/svg"><path d="m459.871094 512h-407.742188c-28.789062 0-52.128906-23.339844-52.128906-52.128906v-407.742188c0-28.789062 23.339844-52.128906 52.128906-52.128906h407.742188c28.789062 0 52.128906 23.339844 52.128906 52.128906v407.742188c0 28.789062-23.339844 52.128906-52.128906 52.128906zm0 0" fill="#ffefe4"/><path d="m459.871094 482h-407.742188c-28.789062 0-52.128906-23.339844-52.128906-52.128906v30c0 28.789062 23.339844 52.128906 52.128906 52.128906h407.742188c28.789062 0 52.128906-23.339844 52.128906-52.128906v-30c0 28.789062-23.339844 52.128906-52.128906 52.128906zm0 0" fill="#edd4c2"/><path d="m459.871094 0h-407.742188c-28.789062 0-52.128906 23.339844-52.128906 52.128906v27.871094h512v-27.871094c0-28.789062-23.339844-52.128906-52.128906-52.128906zm0 0" fill="#69ebfc"/><path d="m459.871094 0h-407.742188c-28.789062 0-52.128906 23.339844-52.128906 52.128906v27.871094h.0546875c1.1171875-27.800781 24.0000005-50 52.0742185-50h407.742188c28.074218 0 50.957031 22.199219 52.074218 50h.054688v-27.871094c0-28.789062-23.339844-52.128906-52.128906-52.128906zm0 0" fill="#a1f1fc"/><path d="m88 40c0 9.941406-8.058594 18-18 18s-18-8.058594-18-18 8.058594-18 18-18 18 8.058594 18 18zm0 0" fill="#ff8354"/><path d="m155 40c0 9.941406-8.058594 18-18 18s-18-8.058594-18-18 8.058594-18 18-18 18 8.058594 18 18zm0 0" fill="#d476e2"/><path d="m222 40c0 9.941406-8.058594 18-18 18s-18-8.058594-18-18 8.058594-18 18-18 18 8.058594 18 18zm0 0" fill="#6770e6"/><path d="m138.640625 436.664062h228.660156v44.671876h-228.660156zm0 0" fill="#6770e6"/><path d="m309 450.671875h-112.058594c-4.597656 0-8.328125 3.726563-8.328125 8.328125s3.730469 8.328125 8.328125 8.328125h112.058594c4.601562 0 8.328125-3.726563 8.328125-8.328125s-3.726563-8.328125-8.328125-8.328125zm0 0" fill="#5861c7"/><path d="m449.828125 481.582031h-50.851563l-13.035156-22.582031 13.035156-22.582031h50.851563c-8.476563-17.972657-26.757813-30.417969-47.949219-30.417969-29.273437 0-53 23.726562-53 53s23.726563 53 53 53c21.1875 0 39.46875-12.441406 47.949219-30.417969zm0 0" fill="#d476e2"/><path d="m62.171875 436.417969h50.851563l13.035156 22.582031-13.035156 22.582031h-50.851563c8.480469 17.976563 26.761719 30.417969 47.953125 30.417969 29.269531 0 53-23.726562 53-53s-23.730469-53-53-53c-21.191406 0-39.472656 12.441406-47.953125 30.417969zm0 0" fill="#d476e2"/><g fill="#5861c7"><path d="m369.042969 300.117188h-226.085938c-3.8125 0-6.90625-3.089844-6.90625-6.902344s3.09375-6.90625 6.90625-6.90625h226.085938c3.8125 0 6.90625 3.09375 6.90625 6.90625s-3.09375 6.902344-6.90625 6.902344zm0 0"/><path d="m313.816406 257.835938h-113.90625c-29.503906 0-53.503906-24.003907-53.503906-53.503907 0-3.8125 3.09375-6.902343 6.90625-6.902343s6.902344 3.089843 6.902344 6.902343c0 21.886719 17.808594 39.695313 39.695312 39.695313h113.90625c21.886719 0 39.695313-17.808594 39.695313-39.695313 0-3.8125 3.089843-6.902343 6.902343-6.902343s6.902344 3.089843 6.902344 6.902343c0 29.503907-24 53.503907-53.5 53.503907zm0 0"/><path d="m360.414062 389c-3.8125 0-6.902343-3.09375-6.902343-6.902344 0-21.890625-17.808594-39.695312-39.695313-39.695312h-113.90625c-21.886718 0-39.695312 17.808594-39.695312 39.695312 0 3.808594-3.089844 6.902344-6.902344 6.902344s-6.90625-3.09375-6.90625-6.902344c0-29.5 24-53.503906 53.503906-53.503906h113.90625c29.5 0 53.5 24.003906 53.5 53.503906 0 3.808594-3.089844 6.902344-6.902344 6.902344zm0 0"/></g><path d="m256 376.054688c-35.742188 0-64.71875-28.976563-64.71875-64.71875v-91.792969c0-5.066407 4.105469-9.171875 9.171875-9.171875h111.09375c5.066406 0 9.171875 4.105468 9.171875 9.171875v91.792969c0 35.742187-28.976562 64.71875-64.71875 64.71875zm0 0" fill="#6770e6"/><path d="m256 336.363281c-5.242188 0-9.492188-4.25-9.492188-9.492187v-116.496094h18.984376v116.496094c0 5.242187-4.25 9.492187-9.492188 9.492187zm0 0" fill="#5861c7"/><path d="m264.996094 151.695312h-17.992188c-12.167968 0-22.070312-9.902343-22.070312-22.070312v-10.722656c0-3.8125 3.09375-6.90625 6.90625-6.90625 3.808594 0 6.902344 3.09375 6.902344 6.90625v10.722656c0 4.554688 3.707031 8.261719 8.261718 8.261719h17.992188c4.558594 0 8.265625-3.703125 8.265625-8.261719v-10.722656c0-3.8125 3.089843-6.90625 6.902343-6.90625s6.902344 3.09375 6.902344 6.90625v10.722656c0 12.171875-9.902344 22.070312-22.070312 22.070312zm0 0" fill="#d476e2"/><path d="m256 139.613281c-22.398438 0-40.558594 18.160157-40.558594 40.558594v30.203125h81.117188v-30.203125c0-22.398437-18.160156-40.558594-40.558594-40.558594zm0 0" fill="#d476e2"/><path d="m449.613281 482h-95.5c8.566407 17.753906 26.734375 30 47.761719 30s39.171875-12.253906 47.738281-30zm0 0" fill="#b665c2"/><path d="m157.886719 482h-95.5c8.566406 17.746094 26.710937 30 47.734375 30 21.03125 0 39.199218-12.246094 47.765625-30zm0 0" fill="#b665c2"/></svg>