<svg id="svg17040" height="512" viewBox="0 0 16.933333 16.933334" width="512" xmlns="http://www.w3.org/2000/svg" xmlns:svg="http://www.w3.org/2000/svg"><g id="layer1" transform="translate(0 -280.067)"><path id="path7802" d="m11.376824 286.94543a.26460982.26460982 0 0 0 -.26367.26368v6.35156a.26460982.26460982 0 0 0 .26367.26367h4.76172a.26460982.26460982 0 0 0 .26562-.26367v-3.17578a.26460982.26460982 0 0 0 -.0117-.0762l-.78711-2.625c-.0383-.1786-.11275-.35417-.24219-.4961-.12943-.14193-.32733-.24219-.54687-.24219z" fill="#ff6b6b" font-variant-ligatures="normal" font-variant-position="normal" font-variant-caps="normal" font-variant-numeric="normal" font-variant-alternates="normal" font-feature-settings="normal" text-indent="0" text-align="start" text-decoration-line="none" text-decoration-style="solid" text-decoration-color="#000000" text-transform="none" text-orientation="mixed" white-space="normal" shape-padding="0" isolation="auto" mix-blend-mode="normal" solid-color="#000000" solid-opacity="1" vector-effect="none"/><path id="path7804" d="m2.3807233 284.82825c-.43516 0-.79296.35976-.79296.79492v8.20104h10.0546807v-8.20104c0-.43516-.359761-.79492-.79492-.79492z" fill="#dbe9ee" font-variant-ligatures="normal" font-variant-position="normal" font-variant-caps="normal" font-variant-numeric="normal" font-variant-alternates="normal" font-feature-settings="normal" text-indent="0" text-align="start" text-decoration-line="none" text-decoration-style="solid" text-decoration-color="#000000" text-transform="none" text-orientation="mixed" white-space="normal" shape-padding="0" isolation="auto" mix-blend-mode="normal" solid-color="#000000" solid-opacity="1" vector-effect="none"/><path id="path7806" d="m12.435414 288.00207a.26460982.26460982 0 0 0 -.26562.26563v1.58789a.26460982.26460982 0 0 0 .26562.26367h.6836l.451169.45313a.26460982.26460982 0 0 0 .187501.0762h1.275389a.26460982.26460982 0 0 0 .2539-.33984l-.63476-2.11719a.26460982.26460982 0 0 0 -.253909-.18946z" fill="#33b9ef" font-variant-ligatures="normal" font-variant-position="normal" font-variant-caps="normal" font-variant-numeric="normal" font-variant-alternates="normal" font-feature-settings="normal" text-indent="0" text-align="start" text-decoration-line="none" text-decoration-style="solid" text-decoration-color="#000000" text-transform="none" text-orientation="mixed" white-space="normal" shape-padding="0" isolation="auto" mix-blend-mode="normal" solid-color="#000000" solid-opacity="1" vector-effect="none"/><path id="path7808" d="m1.5877633 293.29504v1.32227c-.0005609.14617.1175.2651.26367.26562h14.2871107c.14693.00056.266179-.11869.26562-.26562 0-.44076 0-.88151 0-1.32227z" fill="#2f5c7e" font-variant-ligatures="normal" font-variant-position="normal" font-variant-caps="normal" font-variant-numeric="normal" font-variant-alternates="normal" font-feature-settings="normal" text-indent="0" text-align="start" text-decoration-line="none" text-decoration-style="solid" text-decoration-color="#000000" text-transform="none" text-orientation="mixed" white-space="normal" shape-padding="0" isolation="auto" mix-blend-mode="normal" solid-color="#000000" solid-opacity="1" vector-effect="none"/><path id="path7810" d="m13.494014 292.76575c-1.01975 0-1.85157.83182-1.85157 1.85156s.83182 1.85351 1.85157 1.85351c1.019739 0 1.85156-.83377 1.85156-1.85351s-.831821-1.85156-1.85156-1.85156z" fill="#33658a" font-variant-ligatures="normal" font-variant-position="normal" font-variant-caps="normal" font-variant-numeric="normal" font-variant-alternates="normal" font-feature-settings="normal" text-indent="0" text-align="start" text-decoration-line="none" text-decoration-style="solid" text-decoration-color="#000000" text-transform="none" text-orientation="mixed" white-space="normal" shape-padding="0" isolation="auto" mix-blend-mode="normal" solid-color="#000000" solid-opacity="1" vector-effect="none"/><path id="path7812" d="m13.494014 293.82434c-.435241 0-.794911.35774-.79493.79297 0 .43524.359679.79492.79493.79492.435239 0 .79296-.35968.79296-.79492 0-.43525-.357731-.79297-.79296-.79297z" fill="#dbe9ee" font-variant-ligatures="normal" font-variant-position="normal" font-variant-caps="normal" font-variant-numeric="normal" font-variant-alternates="normal" font-feature-settings="normal" text-indent="0" text-align="start" text-decoration-line="none" text-decoration-style="solid" text-decoration-color="#000000" text-transform="none" text-orientation="mixed" white-space="normal" shape-padding="0" isolation="auto" mix-blend-mode="normal" solid-color="#000000" solid-opacity="1" vector-effect="none"/><path id="path7814" d="m12.435414 291.17786a.26464501.26464501 0 1 0 0 .52929h.5293a.26464501.26464501 0 1 0 0-.52929z" fill="#e86262" font-variant-ligatures="normal" font-variant-position="normal" font-variant-caps="normal" font-variant-numeric="normal" font-variant-alternates="normal" font-feature-settings="normal" text-indent="0" text-align="start" text-decoration-line="none" text-decoration-style="solid" text-decoration-color="#000000" text-transform="none" text-orientation="mixed" white-space="normal" shape-padding="0" isolation="auto" mix-blend-mode="normal" solid-color="#000000" solid-opacity="1" vector-effect="none"/><path id="path7816" d="m5.0272132 292.76575c-1.0197399 0-1.85156.83182-1.85156 1.85156s.8318201 1.85351 1.85156 1.85351c1.0197402 0 1.85156-.83377 1.85156-1.85351s-.8318198-1.85156-1.85156-1.85156z" fill="#33658a" font-variant-ligatures="normal" font-variant-position="normal" font-variant-caps="normal" font-variant-numeric="normal" font-variant-alternates="normal" font-feature-settings="normal" text-indent="0" text-align="start" text-decoration-line="none" text-decoration-style="solid" text-decoration-color="#000000" text-transform="none" text-orientation="mixed" white-space="normal" shape-padding="0" isolation="auto" mix-blend-mode="normal" solid-color="#000000" solid-opacity="1" vector-effect="none"/><path id="path7818" d="m5.0272132 293.82434c-.4352298 0-.7949099.35774-.79492.79297 0 .43524.3596801.79492.79492.79492.4352502 0 .7929801-.35967.79297-.79492 0-.43525-.3577299-.79297-.79297-.79297z" fill="#dbe9ee" font-variant-ligatures="normal" font-variant-position="normal" font-variant-caps="normal" font-variant-numeric="normal" font-variant-alternates="normal" font-feature-settings="normal" text-indent="0" text-align="start" text-decoration-line="none" text-decoration-style="solid" text-decoration-color="#000000" text-transform="none" text-orientation="mixed" white-space="normal" shape-padding="0" isolation="auto" mix-blend-mode="normal" solid-color="#000000" solid-opacity="1" vector-effect="none"/><path id="path13964-3-0" d="m8.7309737 284.82889a3.9684831 3.9684831 0 0 1 -3.9684804 3.96848 3.9684831 3.9684831 0 0 1 -3.96849001-3.96848 3.9684831 3.9684831 0 0 1 3.96849001-3.96849 3.9684831 3.9684831 0 0 1 3.9684804 3.96849z" fill="#33b9ef"/><path id="path12743-0-0" d="m4.7614734 280.59608c-2.3348701 0-4.23231011 1.89743-4.23231011 4.2323s1.89744001 4.23436 4.23231011 4.23436c2.3348699 0 4.2343693-1.89949 4.2343693-4.23436 0-.38172-.0521-.76127-.153989-1.12913-.0836-.35739-.62155-.20913-.51005.14056.0891.32189.13487.65457.13487.98857 0 2.04889-1.6563104 3.7052-3.7052003 3.7052-2.04889 0-3.7031301-1.65631-3.7031301-3.7052s1.6542499-3.70314 3.7031301-3.70314c1.1025597 0 2.1385199.49069 2.8370398 1.32189h-.7198501a.26484149.26484149 0 1 0 0 .52968h1.3244596a.26460982.26460982 0 0 0 .263551-.26355v-1.32446a.26460982.26460982 0 0 0 -.26975-.26769.26460982.26460982 0 0 0 -.25941.26769v.64285c-.7967104-.90364-1.9503504-1.43557-3.1760403-1.43557z" fill="#2fa9da" font-variant-ligatures="normal" font-variant-position="normal" font-variant-caps="normal" font-variant-numeric="normal" font-variant-alternates="normal" font-feature-settings="normal" text-indent="0" text-align="start" text-decoration-line="none" text-decoration-style="solid" text-decoration-color="#000000" text-transform="none" text-orientation="mixed" white-space="normal" shape-padding="0" isolation="auto" mix-blend-mode="normal" solid-color="#000000" solid-opacity="1" vector-effect="none"/><path id="path12741-1" d="m4.7587333 282.44374a.26460982.26460982 0 0 0 -.26172.26953v2.11523a.26460982.26460982 0 0 0 .0781.1875l1.05859 1.05859a.26516505.26516505 0 1 0 .375-.375l-.9824201-.98046v-2.00586a.26460982.26460982 0 0 0 -.26758-.26953z" fill="#dbe9ee" font-variant-ligatures="normal" font-variant-position="normal" font-variant-caps="normal" font-variant-numeric="normal" font-variant-alternates="normal" font-feature-settings="normal" text-indent="0" text-align="start" text-decoration-line="none" text-decoration-style="solid" text-decoration-color="#000000" text-transform="none" text-orientation="mixed" white-space="normal" shape-padding="0" isolation="auto" mix-blend-mode="normal" solid-color="#000000" solid-opacity="1" vector-effect="none"/></g></svg>