<svg id="Layer_1" enable-background="new 0 0 48 48" height="512" viewBox="0 0 48 48" width="512" xmlns="http://www.w3.org/2000/svg"><path d="m41.646 14h-12.646v23h15c1.657 0 3-1.343 3-3v-9.615c0-.254-.049-.507-.143-.743l-3.354-8.385c-.304-.759-1.039-1.257-1.857-1.257z" fill="#ffc107"/><path d="m44.083 26.936h-11.083c-.552 0-1-.448-1-1v-8.936c0-.552.448-1 1-1h8.177c.41 0 .779.251.93.633l2.906 7.357c.046.117.07.242.07.367v1.579c0 .552-.447 1-1 1z" fill="#35495d"/><path d="m27 8h-24c-1.105 0-2 .895-2 2v27h28v-27c0-1.105-.895-2-2-2z" fill="#4caf50"/><circle cx="13" cy="37" fill="#37474f" r="5"/><circle cx="13" cy="37" fill="#78909c" r="2"/><circle cx="38" cy="37" fill="#37474f" r="5"/><circle cx="38" cy="37" fill="#78909c" r="2"/><path d="m45 32h2v2h-2z" fill="#ff5722"/><path d="m45 29h2v3h-2z" fill="#d1c4e9"/><path d="m13.177 28.265-6.801-6.801 2.828-2.828 3.973 3.972 7.629-7.629 2.828 2.829z" fill="#fff"/></svg>