<svg id="Layer_1" enable-background="new 0 0 468 468" height="512" viewBox="0 0 468 468" width="512" xmlns="http://www.w3.org/2000/svg"><g><g><g><path d="m335.742 339.072c-.028-57.376-45.919-103.874-102.517-103.874h-.201l-41.27 51.89-41.471-52.143c-56.599 0-102.489 46.497-102.517 103.874l-.044 79.245h288.065z" fill="#fff"/></g><path d="m233.225 220.767h-.201c-4.399 0-8.557 2.006-11.295 5.449l-29.975 37.688-30.176-37.941c-2.738-3.443-6.896-5.449-11.295-5.449-64.454 0-116.917 53.068-116.949 118.298l-.044 79.245c-.002 3.829 1.518 7.502 4.224 10.21 2.707 2.708 6.379 4.23 10.208 4.23h171.666v-28.863h-95.502v-35.786h-28.865v35.786h-32.86l.036-64.806c.023-47.013 35.927-85.672 81.332-89.189l36.93 46.433c5.427 7.19 17.163 7.189 22.59 0l36.738-46.192c18.268 1.39 35.768 8.556 49.871 20.526l18.678-22.005c-20.995-17.82-47.67-27.634-75.111-27.634z" fill="#3e4d6c"/><g><g><ellipse cx="191.754" cy="101.493" fill="#fff" rx="81.237" ry="87.061"/></g><g><path d="m151.75 49.951c0-9.206 1.343-18.073 3.814-26.402-26.698 14.265-45.048 43.8-45.048 77.944 0 48.083 36.371 87.061 81.237 87.061 36.276 0 66.989-25.487 77.423-60.659-10.9 5.824-23.183 9.118-36.19 9.118-44.865-.001-81.236-38.98-81.236-87.062z" fill="#e7e7e7"/></g><g><path d="m191.754 202.986c-52.752 0-95.669-45.529-95.669-101.493s42.917-101.493 95.669-101.493 95.669 45.529 95.669 101.493c-.001 55.963-42.917 101.493-95.669 101.493zm0-174.123c-36.837 0-66.806 32.582-66.806 72.629 0 40.048 29.969 72.63 66.806 72.63 36.836 0 66.805-32.582 66.805-72.63 0-40.047-29.969-72.629-66.805-72.629z" fill="#3e4d6c"/></g></g></g><g><g><ellipse cx="347.373" cy="380.615" fill="#0795fe" rx="87.338" ry="87.385"/></g><g><g><path d="m333.175 370.324h28.863v66.559h-28.863z" fill="#fff"/></g><g><ellipse cx="347.373" cy="342.464" fill="#fff" rx="18.138" ry="18.116"/></g></g></g></g></svg>