<svg id="Capa_1" enable-background="new 0 0 512 512" height="512" viewBox="0 0 512 512" width="512" xmlns="http://www.w3.org/2000/svg"><g><path d="m512 256c0 22.802-2.981 44.909-8.575 65.95-.077.289-2.809.427-2.935.71-2.187 4.883-8.75 9.011-10.383 13.872-34.065 101.381-121.249 165.447-234.107 165.447-20.431 0-40.303 7.628-59.35 3.106-112.766-26.769-196.65-128.131-196.65-249.085 0-141.385 114.615-256 256-256 57.438 0 110.457 18.916 153.169 50.858 1.746 1.306-.398 4.902 1.313 6.251 20.732 16.343 38.876 35.822 53.717 57.721 1.63 2.405 7.092 2.57 8.641 5.033 24.81 39.432 39.16 86.109 39.16 136.137z" fill="#55a4f9"/><path d="m486.234 240c0 127.155-103.079 230.234-230.234 230.234s-230.234-103.079-230.234-230.234 103.079-230.234 230.234-230.234 230.234 103.079 230.234 230.234z" fill="#76b6fa"/><path d="m177.489 490h-132.17c-2.761 0-5-2.239-5-5v-413c0-2.761 2.239-5 5-5h174.681v380.489c0 23.478-19.033 42.511-42.511 42.511zm295.351-160.913v-209.224c-11.521-18.313-25.299-35.064-40.942-49.863h-138.738v301.597h137.17c23.478 0 42.51-19.032 42.51-42.51z" fill="#203e76"/><path d="m437.34 370h-170.553v137.878h-156.993c-2.761 0-5-2.239-5-5v-447.878c0-2.761 2.239-5 5-5h327.546z" fill="#e9f3fe"/><path d="m116.521 507.878h-31.138c-2.761 0-5-2.239-5-5v-447.878c0-2.761 2.239-5 5-5h31.138c-2.761 0-5 2.239-5 5v447.878c0 2.762 2.239 5 5 5z" fill="#c8e2fd"/><path d="m257 0c-28.949 0-52.5 23.551-52.5 52.5v33.5c0 4.142 3.358 7.5 7.5 7.5h90c4.142 0 7.5-3.358 7.5-7.5v-33.5c0-28.949-23.551-52.5-52.5-52.5zm37.5 78.5h-75v-26c0-20.678 16.822-37.5 37.5-37.5s37.5 16.822 37.5 37.5z" fill="#203e76"/><path d="m192 75v-30c0-2.761 2.239-5 5-5h31.862c2.761 0 5 2.239 5 5v30c0 2.761-2.239 5-5 5h-31.862c-2.761 0-5-2.239-5-5z" fill="#ffb52d"/><path d="m216.404 75v-30c0-2.761 2.239-5 5-5h95.596c2.761 0 5 2.239 5 5v30c0 2.761-2.239 5-5 5h-95.596c-2.761 0-5-2.239-5-5z" fill="#ffc14f"/><path d="m503.424 321.95c-29.091 109.424-128.842 190.05-247.424 190.05-7.492 0-14.908-.322-22.237-.953-7.785-.67-13.763-7.19-13.763-15.004v-164.195c0-5.523 4.477-10 10-10h82.955l8.641 12.981h68.426l19.024-12.981h92.954c.484 0 .959.036 1.424.102z" fill="#ffc14f"/><path d="m218.58 321.848h24.023c-4.738 0-8.58 3.841-8.58 8.58v180.642c-8.122-.69-16.135-1.76-24.023-3.191v-177.45c0-4.74 3.841-8.581 8.58-8.581z" fill="#ffb52d"/><path d="m409.045 321.848v94.703h-8.52l-10.637-14.215-10.637 14.215h-7.616l-10.635-14.215-10.637 14.215h-7.616l-10.637-14.215-10.637 14.215h-8.52v-94.703z" fill="#f29500"/><path d="m307 60c0 5.523-4.477 10-10 10s-10-4.477-10-10 4.477-10 10-10 10 4.477 10 10zm-90-10c-5.523 0-10 4.477-10 10s4.477 10 10 10 10-4.477 10-10-4.477-10-10-10z" fill="#f29500"/><path d="m83.756 428.401v-60c0-8.284 6.716-15 15-15h48.963c8.284 0 15 6.716 15 15v60c0 8.284-6.716 15-15 15h-48.963c-8.284 0-15-6.716-15-15zm0-119.462v-60c0-8.284 6.716-15 15-15h48.963c8.284 0 15 6.716 15 15v60c0 8.284-6.716 15-15 15h-48.963c-8.284 0-15-6.715-15-15zm0-119.461v-60c0-8.284 6.716-15 15-15h48.963c8.284 0 15 6.716 15 15v60c0 8.284-6.716 15-15 15h-48.963c-8.284 0-15-6.716-15-15z" fill="#82cd64"/><path d="m109.794 443.401h-22.075c-8.284 0-15-6.716-15-15v-60c0-8.284 6.716-15 15-15h22.075c-8.284 0-15 6.716-15 15v60c0 8.284 6.715 15 15 15zm0-119.462h-22.075c-8.284 0-15-6.716-15-15v-60c0-8.284 6.716-15 15-15h22.075c-8.284 0-15 6.716-15 15v60c0 8.285 6.715 15 15 15zm0-119.461h-22.075c-8.284 0-15-6.716-15-15v-60c0-8.284 6.716-15 15-15h22.075c-8.284 0-15 6.716-15 15v60c0 8.284 6.715 15 15 15z" fill="#6dc54a"/><path d="m150.063 384.401-36.29 36.289c-1.464 1.464-3.384 2.197-5.303 2.197s-3.839-.732-5.303-2.197l-17.793-17.793c-2.929-2.929-2.929-7.678 0-10.606 2.929-2.929 7.678-2.929 10.606 0l12.49 12.49 30.986-30.986c2.929-2.929 7.678-2.929 10.606 0 2.931 2.928 2.931 7.677.001 10.606zm0-119.462-36.29 36.289c-1.464 1.464-3.384 2.197-5.303 2.197s-3.839-.732-5.303-2.197l-17.793-17.793c-2.929-2.929-2.929-7.678 0-10.606 2.929-2.929 7.678-2.929 10.606 0l12.49 12.49 30.986-30.986c2.929-2.929 7.678-2.929 10.606 0 2.931 2.928 2.931 7.677.001 10.606zm0-119.461-36.29 36.289c-1.464 1.464-3.384 2.197-5.303 2.197s-3.839-.732-5.303-2.197l-17.793-17.793c-2.929-2.929-2.929-7.678 0-10.606 2.929-2.929 7.678-2.929 10.606 0l12.49 12.49 30.986-30.986c2.929-2.929 7.678-2.929 10.606 0 2.931 2.928 2.931 7.677.001 10.606z" fill="#fff"/><path d="m405.138 144.383c0 4.142-3.358 7.5-7.5 7.5h-204.138c-4.142 0-7.5-3.358-7.5-7.5s3.358-7.5 7.5-7.5h204.138c4.142 0 7.5 3.358 7.5 7.5zm-49.5 22.5h-162.138c-4.142 0-7.5 3.358-7.5 7.5s3.358 7.5 7.5 7.5h162.138c4.142 0 7.5-3.358 7.5-7.5s-3.358-7.5-7.5-7.5z" fill="#a7d0fc"/><path d="m405.138 261c0 4.142-3.358 7.5-7.5 7.5h-204.138c-4.142 0-7.5-3.358-7.5-7.5s3.358-7.5 7.5-7.5h204.138c4.142 0 7.5 3.358 7.5 7.5zm-49.5 22.5h-162.138c-4.142 0-7.5 3.358-7.5 7.5s3.358 7.5 7.5 7.5h162.138c4.142 0 7.5-3.358 7.5-7.5s-3.358-7.5-7.5-7.5z" fill="#a7d0fc"/><path d="m220.176 255.601c15.046 2.817 26.905 14.677 29.723 29.723l-52.959 26.896c-2.349 1.193-4.854-1.312-3.661-3.661zm243.745-187.777 34.545-34.545c1.953-1.953 1.953-5.118 0-7.071l-19.174-19.175c-1.953-1.953-5.118-1.953-7.071 0l-34.545 34.545c-1.953 1.953-1.953 5.118 0 7.071l19.174 19.174c1.952 1.953 5.118 1.953 7.071.001z" fill="#203e76"/><path d="m225.356 297.788-28.416 14.432c-2.349 1.193-4.854-1.312-3.661-3.661l14.432-28.416c7.716 3.677 13.968 9.929 17.645 17.645z" fill="#19305c"/><path d="m217.746 261.531c-1.953-1.953-1.953-5.118 0-7.071l234.305-234.304c1.953-1.953 5.119-1.953 7.071 0l21.957 21.957c-1.953-1.953-5.118-1.953-7.071 0l-234.304 234.305c-1.953 1.953-1.953 5.119 0 7.071z" fill="#f44545"/><path d="m243.969 287.754-8.642-8.642c-1.953-1.953-1.953-5.118 0-7.071l234.304-234.305c1.953-1.953 5.118-1.953 7.071 0l8.641 8.641c1.953 1.953 1.953 5.119 0 7.071l-234.304 234.305c-1.952 1.953-5.117 1.953-7.07.001z" fill="#fb5858"/></g></svg>