<svg id="Flat" height="512" viewBox="0 0 64 64" width="512" xmlns="http://www.w3.org/2000/svg"><circle cx="32" cy="32" fill="#64a0fa" r="31"/><path d="m52.3631 8.6369a30.9909 30.9909 0 0 1 -43.7262 43.7262 30.9925 30.9925 0 1 0 43.7262-43.7262z" fill="#4492f4"/><g fill="#50ec72"><path d="m28.7857 30h-7.7857l-3-3-9 5v5.5357l3.0714 1.1072 1.1072 4.4285 4.4285 1.1072 1.1072 3.3214-3.7143 5.5 1.9264 6.0876a30.8331 30.8331 0 0 0 4.0022 1.8687l2.0714-5.9563 5.6786-2v-4l4.3214-2 4-5v-4.4643l-4-1.5357z"/><path d="m63 32a30.8709 30.8709 0 0 0 -3.1063-13.5361l-5.7508 2.4647-9.1429-1.9286-3.0357-4.7143h-3.3214l-6.6429 3.7143 1 7 6 5 6-2 3 4-2 4v7.0714l4 1.9286v5l4.6293 3.1766a30.8834 30.8834 0 0 0 8.3707-21.1766z"/><path d="m2.1646 23.5885 4.8354.6615 2.8571 3.3214 4.1429-.5714v-3l-2-1v-3h5l6-3.5 1.25-5.5h4.75v-4l-6-1-2.28-2.874a31.0621 31.0621 0 0 0 -18.5554 20.4625z"/><path d="m44.3016 3.5424-7.3016 1.4576-1 4 6 1 3-1 3.6071 3.0714h7.1323a31.0825 31.0825 0 0 0 -11.4378-8.529z"/></g><path d="m52 18a4.2815 4.2815 0 0 0 -3.5624 6.6564l3.5624 5.3436 3.5624-5.3436a4.2815 4.2815 0 0 0 -3.5624-6.6564z" fill="#f03a5a"/><circle cx="52" cy="22" fill="#f2f7ff" r="1"/><path d="m25 35a4.2815 4.2815 0 0 0 -3.5624 6.6564l3.5624 5.3436 3.5624-5.3436a4.2815 4.2815 0 0 0 -3.5624-6.6564z" fill="#f03a5a"/><circle cx="25" cy="39" fill="#f2f7ff" r="1"/><path d="m12 3a4.2815 4.2815 0 0 0 -3.5624 6.6564l3.5624 5.3436 3.5624-5.3436a4.2815 4.2815 0 0 0 -3.5624-6.6564z" fill="#f03a5a"/><circle cx="12" cy="7" fill="#f2f7ff" r="1"/><path d="m16.3625 57.3057.5639 1.7819a30.8458 30.8458 0 0 0 4.0022 1.8686l.6461-1.8578a30.7538 30.7538 0 0 1 -5.2122-1.7927z" fill="#5ac263"/><path d="m59.8937 18.4639-1.5137.6488a30.9831 30.9831 0 0 1 -7.2932 31.633l3.5425 2.4309a30.9992 30.9992 0 0 0 5.2644-34.7127z" fill="#5ac263"/></svg>