<svg height="512" viewBox="0 0 64 64" width="512" xmlns="http://www.w3.org/2000/svg"><g id="Navigation_Setting" data-name="Navigation Setting"><path d="m55.31 37.71a23.7 23.7 0 0 1 -2.79 6.74l3.52 4.52-7.07 7.07-4.52-3.52a23.7 23.7 0 0 1 -6.74 2.79l-.71 5.69h-10l-.71-5.69a23.7 23.7 0 0 1 -6.74-2.79l-4.52 3.52-7.07-7.07 3.52-4.52a23.7 23.7 0 0 1 -2.79-6.74l-5.69-.71v-10l5.69-.71a23.7 23.7 0 0 1 2.79-6.74l-3.52-4.52 7.07-7.07 4.52 3.52a23.7 23.7 0 0 1 6.74-2.79l.71-5.69h10l.71 5.69a23.7 23.7 0 0 1 6.74 2.79l4.52-3.52 7.07 7.07-3.52 4.52a23.7 23.7 0 0 1 2.79 6.74l5.69.71v10z" fill="#ff5023"/><circle cx="32" cy="32" fill="#ffd422" r="17"/><path d="m41 23-11.31 11.31-10.61-2.12z" fill="#ff6243"/><g fill="#ed1c24"><path d="m41 23-9.19 21.92-2.12-10.61z"/><path d="m31 10h2v2h-2z"/><path d="m45.849 16.151h2v2h-2z" transform="matrix(.707 -.707 .707 .707 1.594 38.151)"/><path d="m52 31h2v2h-2z"/><path d="m45.849 45.849h2v2h-2z" transform="matrix(.707 -.707 .707 .707 -19.406 46.849)"/><path d="m31 52h2v2h-2z"/><path d="m16.151 45.849h2v2h-2z" transform="matrix(.707 -.707 .707 .707 -28.104 25.849)"/><path d="m10 31h2v2h-2z"/><path d="m16.151 16.151h2v2h-2z" transform="matrix(.707 -.707 .707 .707 -7.104 17.151)"/></g></g></svg>